<?xml version="1.0" standalone="no"?>
<!DOCTYPE svg PUBLIC "-//W3C//DTD SVG 20010904//EN"
 "http://www.w3.org/TR/2001/REC-SVG-20010904/DTD/svg10.dtd">
<svg version="1.0" xmlns="http://www.w3.org/2000/svg"
 width="736.000000pt" height="736.000000pt" viewBox="0 0 736.000000 736.000000"
 preserveAspectRatio="xMidYMid meet">

<g transform="translate(0.000000,736.000000) scale(0.100000,-0.100000)"
fill="#000000" stroke="none">
<path d="M3490 6651 c0 -10 7 -24 15 -31 12 -10 15 -10 15 1 0 11 2 11 10 -1
5 -8 10 -10 10 -5 0 15 -29 55 -41 55 -5 0 -9 -8 -9 -19z"/>
<path d="M3460 6595 c0 -15 30 -49 37 -41 3 2 2 13 -1 24 -8 24 -36 38 -36 17z"/>
<path d="M3431 6517 c-13 -13 -14 -47 -3 -63 17 -26 42 -23 57 6 8 16 12 35 9
43 -7 19 -49 28 -63 14z"/>
<path d="M3377 6464 c-4 -4 -7 -16 -7 -26 0 -20 25 -25 36 -7 8 13 -19 43 -29
33z"/>
<path d="M4067 6363 c-18 -28 24 -76 47 -53 7 7 6 10 -2 10 -6 0 -18 12 -25
26 -8 15 -17 22 -20 17z"/>
<path d="M3380 6312 c0 -4 9 -8 20 -9 11 -1 18 2 15 8 -7 11 -35 12 -35 1z"/>
<path d="M5161 6139 c-1 -9 7 -23 17 -30 15 -12 16 -12 6 1 -6 8 -14 22 -17
30 -5 13 -6 12 -6 -1z"/>
<path d="M4660 6096 c-12 -20 -24 -36 -26 -36 -3 0 -2 5 2 11 5 9 -4 10 -32 4
-100 -18 -143 -61 -113 -113 12 -21 22 -26 44 -25 38 3 77 33 82 62 8 57 22
55 23 -4 l2 -60 24 94 c13 52 22 96 20 98 -2 2 -14 -12 -26 -31z"/>
<path d="M5210 6035 c0 -12 26 -32 50 -40 24 -7 24 -7 8 16 -14 22 -58 40 -58
24z"/>
<path d="M4596 5944 c-5 -14 -4 -15 9 -4 17 14 19 20 6 20 -5 0 -12 -7 -15
-16z"/>
<path d="M5406 5915 c-9 -26 -7 -32 5 -12 6 10 9 21 6 23 -2 3 -7 -2 -11 -11z"/>
<path d="M5391 5864 c0 -11 3 -14 6 -6 3 7 2 16 -1 19 -3 4 -6 -2 -5 -13z"/>
<path d="M5063 5858 c-15 -7 -29 -30 -40 -66 l-17 -54 23 -20 c13 -10 31 -23
39 -27 13 -8 12 -16 -7 -64 -20 -48 -28 -57 -66 -72 -64 -24 -95 -52 -95 -84
0 -91 125 -120 149 -34 6 19 8 40 6 46 -2 7 -6 27 -9 45 -5 29 -3 32 18 32 14
0 27 6 29 13 3 7 6 5 6 -5 1 -10 5 -18 10 -18 5 0 7 9 4 19 -4 16 -1 19 15 14
14 -3 19 -10 15 -21 -4 -10 -3 -14 2 -10 4 4 14 3 21 -3 10 -8 15 -3 22 23 l8
33 87 -1 c49 0 84 3 80 9 -3 4 -23 7 -46 5 -44 -3 -57 10 -32 35 8 9 12 23 9
31 -3 9 -1 16 5 16 6 0 11 7 11 16 0 14 -3 14 -15 4 -18 -15 -18 -10 -5 24 5
14 15 26 22 26 9 0 8 -3 -2 -10 -12 -8 -12 -10 -1 -10 10 0 12 -9 8 -37 -4
-21 -3 -33 1 -27 4 6 17 14 30 18 12 4 22 15 22 24 1 9 7 35 15 57 18 51 3 62
-44 34 -25 -15 -31 -16 -22 -5 12 14 8 18 -23 31 -62 26 -95 30 -102 11 -4
-11 -11 -13 -22 -7 -30 15 -87 20 -109 9z m145 -221 c-8 -15 -17 -17 -51 -12
-23 4 -44 9 -46 11 -9 8 10 34 26 34 10 0 29 6 43 13 22 12 26 11 31 -8 3 -11
2 -28 -3 -38z"/>
<path d="M3373 5838 c-21 -27 -19 -43 6 -61 l26 -19 -33 5 c-18 2 -36 -1 -39
-6 -10 -16 27 -37 64 -37 29 0 33 3 33 28 0 43 -20 102 -34 102 -8 0 -18 -6
-23 -12z"/>
<path d="M4380 5799 c0 -5 5 -7 10 -4 6 3 10 8 10 11 0 2 -4 4 -10 4 -5 0 -10
-5 -10 -11z"/>
<path d="M5850 5770 c-7 -14 -26 -38 -42 -53 -30 -31 -37 -71 -13 -81 9 -3 15
-18 15 -35 0 -20 7 -34 21 -41 11 -6 24 -21 28 -32 7 -20 8 -20 28 8 11 16 24
45 27 64 5 23 4 30 -2 21 -13 -18 -21 7 -21 65 0 23 -6 56 -14 75 l-14 34 -13
-25z"/>
<path d="M4500 5771 c0 -7 -4 -9 -10 -6 -5 3 -10 2 -10 -3 0 -6 -10 -8 -22 -4
-15 4 -19 2 -14 -7 6 -9 -1 -11 -28 -6 -29 6 -36 4 -36 -9 0 -9 -4 -16 -10
-16 -5 0 -10 -7 -10 -16 0 -9 -10 -35 -22 -58 -13 -22 -23 -42 -23 -43 -2 -7
-75 -10 -75 -4 0 4 -8 7 -19 6 -25 -2 -81 -50 -81 -69 0 -9 -6 -16 -12 -16 -7
0 16 -14 50 -30 35 -17 66 -30 68 -30 2 0 4 9 4 20 0 39 29 78 72 98 24 11 70
32 103 46 33 14 52 25 42 26 -26 0 -12 17 34 40 44 23 47 32 19 67 -11 14 -20
20 -20 14z"/>
<path d="M2409 5700 c-30 -20 -57 -30 -82 -30 -38 0 -39 0 -32 -32 10 -43 9
-43 51 -30 45 14 79 -1 141 -61 l42 -40 -4 89 c-2 49 -9 90 -15 92 -5 2 -10
10 -10 17 0 12 -21 25 -39 25 -5 0 -28 -13 -52 -30z"/>
<path d="M4620 5710 c0 -5 5 -10 11 -10 5 0 7 5 4 10 -3 6 -8 10 -11 10 -2 0
-4 -4 -4 -10z"/>
<path d="M3271 5660 c-13 -11 -29 -20 -37 -20 -8 0 -14 -9 -14 -20 0 -11 3
-20 7 -20 18 0 73 47 73 63 0 21 0 21 -29 -3z"/>
<path d="M3312 5637 c-18 -18 -32 -35 -32 -38 0 -5 17 -5 51 0 3 1 16 10 29
21 13 11 30 20 38 20 12 0 12 3 -4 15 -29 22 -47 18 -82 -18z"/>
<path d="M4555 5660 c-16 -7 -17 -9 -3 -9 9 -1 20 4 23 9 7 11 7 11 -20 0z"/>
<path d="M4660 5590 c0 -5 7 -7 15 -4 8 4 15 8 15 10 0 2 -7 4 -15 4 -8 0 -15
-4 -15 -10z"/>
<path d="M5355 5580 c-17 -7 -17 -9 -3 -9 10 -1 33 -15 53 -32 38 -34 42 -32
20 10 -11 23 -38 45 -48 40 -1 0 -11 -4 -22 -9z"/>
<path d="M2438 5557 c25 -27 28 -37 8 -37 -9 0 -13 -13 -13 -40 0 -22 4 -37 8
-34 5 3 9 -2 9 -10 0 -11 9 -16 29 -16 35 0 46 13 26 30 -8 7 -15 21 -15 31 0
10 -4 21 -10 24 -5 3 -10 15 -10 25 0 20 -25 50 -42 50 -7 0 -2 -10 10 -23z"/>
<path d="M4487 5556 c-97 -40 -105 -55 -62 -118 18 -27 30 -36 43 -31 14 5 15
3 5 -8 -21 -21 -15 -46 16 -72 24 -20 36 -23 63 -18 28 6 33 12 36 36 3 41 -9
56 -54 66 l-39 8 37 -2 c27 -2 39 2 42 13 2 9 4 7 5 -7 1 -22 21 -44 21 -24 0
6 5 11 11 11 8 0 8 -4 2 -12 -6 -8 -7 -34 -3 -63 7 -46 15 -30 10 22 -1 18 3
21 20 18 29 -6 58 58 38 83 -11 13 -11 14 2 7 13 -8 13 -7 0 11 -22 28 -33 34
-52 28 -13 -4 -18 0 -18 13 0 26 -28 63 -48 63 -9 0 -43 -11 -75 -24z m179
-138 c5 -7 3 -8 -6 -3 -10 6 -12 4 -7 -8 4 -10 1 -17 -6 -17 -7 0 -13 9 -14
20 -2 22 21 27 33 8z"/>
<path d="M2587 5523 c-4 -3 -7 -11 -7 -17 0 -6 5 -5 12 2 6 6 9 14 7 17 -3 3
-9 2 -12 -2z"/>
<path d="M6084 5478 c17 -65 18 -96 1 -122 -23 -35 -16 -40 33 -23 30 10 43
11 46 3 6 -15 26 13 26 37 0 25 -49 114 -66 121 -33 13 -47 7 -40 -16z"/>
<path d="M3776 5444 c-4 -9 -5 -19 -3 -21 8 -7 56 20 51 28 -9 15 -42 10 -48
-7z m34 2 c0 -2 -7 -7 -16 -10 -8 -3 -12 -2 -9 4 6 10 25 14 25 6z"/>
<path d="M5227 5398 l5 -53 -64 -51 c-35 -28 -80 -60 -99 -70 -26 -14 -30 -19
-16 -22 9 -2 15 -8 12 -13 -4 -5 -1 -9 5 -9 7 0 10 -7 6 -15 -3 -9 0 -15 9
-15 9 0 12 -6 8 -17 -8 -24 -39 -53 -47 -46 -3 4 -6 2 -6 -3 0 -5 -16 -18 -35
-28 -59 -32 -32 -28 34 4 42 21 61 36 61 49 0 25 19 31 97 31 61 0 68 -2 97
-33 17 -18 37 -45 45 -60 13 -25 12 -28 -9 -47 l-23 -20 30 6 c23 4 36 0 61
-21 18 -15 32 -36 32 -49 0 -20 5 -22 58 -21 89 1 97 13 62 90 -20 43 -73 105
-91 105 -5 0 -9 4 -9 10 0 9 -19 35 -47 65 -7 8 -13 18 -13 24 0 6 -4 11 -9
11 -5 0 -16 20 -24 45 -22 62 -8 105 34 105 16 0 29 4 29 10 0 11 -62 1 -71
-12 -3 -4 -14 1 -26 11 -11 11 -31 21 -44 23 -19 2 -24 9 -24 33 0 20 -6 31
-17 33 -14 3 -16 -4 -11 -50z"/>
<path d="M4342 5416 c-12 -6 -20 -15 -18 -21 4 -13 48 -8 57 7 4 6 15 8 25 4
12 -5 15 -4 9 2 -17 16 -49 20 -73 8z"/>
<path d="M4106 5385 c-11 -8 -15 -15 -10 -15 6 0 17 -11 24 -25 9 -16 17 -22
23 -16 6 6 18 4 33 -6 26 -17 31 -8 10 19 -7 10 -16 14 -20 10 -5 -4 -7 0 -6
8 6 43 -17 53 -54 25z"/>
<path d="M4420 5380 c0 -5 5 -10 11 -10 5 0 7 5 4 10 -3 6 -8 10 -11 10 -2 0
-4 -4 -4 -10z"/>
<path d="M4311 5365 c-1 -26 9 -39 33 -43 14 -3 17 1 13 12 -5 12 0 16 21 16
23 1 25 2 9 11 -20 12 -57 3 -58 -14 -1 -7 -5 -1 -9 13 -7 21 -8 21 -9 5z"/>
<path d="M5992 5323 c3 -25 0 -28 -24 -25 -23 3 -27 0 -21 -15 11 -28 65 -107
80 -116 7 -4 13 -16 13 -27 0 -13 7 -18 21 -17 19 1 21 6 17 56 -4 44 -10 59
-31 76 -33 25 -34 41 -5 48 22 6 22 6 -4 27 -36 28 -50 25 -46 -7z"/>
<path d="M3654 5309 c-15 -16 -39 -32 -51 -35 -30 -8 -29 -16 5 -36 30 -18 75
-21 65 -4 -4 5 1 7 11 3 14 -6 16 -3 11 13 -5 15 -3 18 8 14 8 -3 18 -1 22 5
3 6 1 11 -4 11 -6 0 -11 6 -11 13 0 6 -7 20 -14 29 -12 16 -15 15 -42 -13z"/>
<path d="M4435 5330 c-9 -15 3 -29 25 -27 25 2 26 13 1 27 -13 7 -22 7 -26 0z"/>
<path d="M3907 5290 c-31 -27 -67 -108 -59 -133 1 -4 -5 -16 -15 -25 -15 -15
-15 -17 -1 -20 19 -4 89 30 135 64 22 17 34 36 39 61 6 32 3 40 -20 60 -35 29
-38 29 -79 -7z"/>
<path d="M4425 5280 c3 -5 10 -10 16 -10 5 0 9 5 9 10 0 6 -7 10 -16 10 -8 0
-12 -4 -9 -10z"/>
<path d="M4492 5276 c7 -8 15 -12 17 -11 5 6 -10 25 -20 25 -5 0 -4 -6 3 -14z"/>
<path d="M3735 5233 c-32 -47 -32 -67 0 -81 52 -24 78 -5 82 60 2 33 -1 40
-23 48 -34 13 -30 15 -59 -27z"/>
<path d="M5497 5223 c-11 -10 -7 -65 7 -103 l13 -35 4 63 c2 34 3 67 1 72 -4
12 -16 13 -25 3z"/>
<path d="M4997 5193 c-10 -9 -9 -23 1 -23 5 0 9 7 9 15 0 17 -1 18 -10 8z"/>
<path d="M2670 5126 c0 -14 -4 -28 -10 -31 -15 -9 -12 -25 5 -25 9 0 28 -6 44
-14 17 -9 33 -11 41 -6 12 7 10 14 -10 37 -14 15 -17 21 -8 14 10 -7 23 -11
29 -9 14 5 -35 42 -68 52 -20 6 -23 4 -23 -18z"/>
<path d="M4811 5134 c0 -11 3 -14 6 -6 3 7 2 16 -1 19 -3 4 -6 -2 -5 -13z"/>
<path d="M5030 5129 c0 -5 5 -7 10 -4 6 3 10 8 10 11 0 2 -4 4 -10 4 -5 0 -10
-5 -10 -11z"/>
<path d="M2926 5091 c-11 -17 25 -58 66 -77 21 -9 52 -29 69 -45 30 -26 33
-27 55 -12 13 8 24 23 24 33 0 18 -54 50 -83 50 -21 0 -110 39 -118 52 -4 7
-9 7 -13 -1z"/>
<path d="M4816 5072 c-4 -7 -5 -16 -2 -21 7 -11 -17 -21 -64 -27 -19 -3 -39
-9 -44 -14 -4 -4 -15 -6 -22 -3 -9 3 -18 -6 -25 -26 -6 -17 -15 -31 -20 -31
-4 0 -13 -9 -19 -20 -21 -39 18 -22 70 30 40 40 56 50 83 50 25 0 37 6 46 24
14 26 11 61 -3 38z"/>
<path d="M6000 5045 c0 -19 -4 -26 -14 -22 -21 8 -36 -15 -29 -43 4 -15 3 -21
-5 -16 -6 3 -13 2 -17 -4 -3 -5 -20 -10 -36 -10 -17 0 -28 -4 -25 -9 4 -5 1
-11 -6 -13 -10 -4 -10 -14 0 -46 13 -42 10 -62 -9 -62 -5 0 -9 7 -9 15 0 13
-2 13 -17 1 -37 -30 -215 -146 -223 -146 -5 0 -12 -5 -16 -12 -5 -7 -3 -8 6
-3 8 5 11 3 8 -6 -3 -8 -15 -13 -29 -11 -14 2 -19 0 -12 -5 16 -11 27 -59 17
-74 -12 -20 -11 -59 2 -59 7 0 15 6 17 13 3 6 6 2 6 -9 1 -14 -7 -24 -19 -27
-11 -3 -20 -12 -20 -21 0 -13 4 -13 30 2 16 9 30 23 30 30 0 6 5 12 11 12 6 0
9 -6 7 -12 -3 -7 1 -19 9 -26 18 -19 16 -29 -8 -35 -12 -3 -22 0 -26 9 -8 22
-25 16 -18 -6 4 -12 2 -27 -4 -34 -6 -7 -10 -22 -10 -32 5 -52 0 -66 -23 -58
-21 6 -21 6 -5 -11 20 -19 15 -34 -6 -17 -7 6 -18 7 -26 3 -11 -7 -9 -11 5
-20 17 -9 17 -10 2 -11 -9 0 -20 -4 -23 -10 -4 -6 1 -7 12 -4 14 4 12 1 -6
-15 -33 -30 -60 -34 -133 -23 -71 11 -78 9 -78 -19 0 -11 -17 -52 -37 -92 -40
-78 -86 -122 -206 -202 -37 -25 -70 -53 -73 -63 -3 -9 -10 -25 -15 -34 -5 -10
-9 -25 -9 -33 0 -8 -4 -15 -9 -15 -5 0 -12 -12 -15 -26 -4 -14 -15 -35 -25
-46 -17 -17 -23 -18 -61 -8 -24 6 -53 9 -65 6 -20 -5 -22 -3 -18 15 5 19 4 20
-14 9 -12 -8 -31 -10 -47 -6 l-28 7 3 85 c3 69 2 81 -8 67 -7 -9 -13 -21 -13
-26 0 -22 -29 -36 -63 -30 -27 4 -39 1 -56 -16 -22 -22 -94 -30 -106 -11 -3 6
-14 10 -25 10 -27 0 -31 23 -11 77 10 27 16 53 14 59 -7 20 26 36 100 50 65
12 79 12 117 -1 57 -20 57 -20 21 20 -17 20 -31 43 -31 52 0 24 -67 83 -87 76
-10 -4 -14 -2 -9 5 3 6 2 13 -4 17 -5 3 -10 1 -10 -5 0 -6 -5 -8 -10 -5 -6 4
-7 11 -4 17 4 6 -1 17 -10 24 -10 7 -22 31 -27 54 -9 39 -6 48 37 129 38 73
59 99 125 156 43 38 79 74 79 80 0 6 -16 49 -35 96 -29 71 -34 94 -30 138 3
29 1 51 -3 49 -77 -39 -107 -48 -134 -39 -33 12 -38 4 -5 -9 19 -8 17 -9 -15
-9 -31 -1 -40 -6 -52 -30 -9 -16 -13 -31 -9 -34 3 -4 2 -14 -2 -24 -5 -10 -7
-22 -6 -28 2 -5 0 -7 -4 -4 -3 4 -18 -4 -32 -17 -27 -25 -63 -32 -63 -12 0 9
-3 9 -12 0 -7 -7 -24 -12 -39 -12 -36 0 -48 44 -24 89 16 32 81 86 125 103 24
9 22 11 -40 39 -35 16 -75 32 -87 35 -13 4 -26 10 -29 15 -3 5 -11 9 -17 9
-17 -1 35 -39 53 -40 13 0 13 -2 1 -9 -12 -8 -12 -14 1 -41 14 -30 14 -34 0
-51 -21 -25 -25 -24 -11 2 9 17 8 20 -1 14 -7 -5 -26 -8 -42 -7 -16 0 -26 -4
-22 -9 3 -6 -4 -7 -19 -3 -14 3 -35 3 -47 -1 -18 -6 -21 -13 -17 -39 5 -38
-15 -117 -26 -98 -11 17 -27 15 -27 -3 0 -8 -9 -15 -19 -15 -22 0 -36 -16 -22
-24 5 -4 12 0 14 6 7 18 27 -10 27 -38 0 -36 -21 -45 -97 -39 -81 5 -83 3 -83
-87 0 -42 -3 -48 -25 -54 -14 -3 -25 -11 -25 -16 0 -6 -6 -8 -12 -6 -7 3 -23
-8 -36 -23 -27 -33 -23 -35 18 -14 20 10 30 12 30 4 0 -6 6 -9 13 -6 8 3 20 1
28 -4 21 -14 -3 -26 -51 -25 -23 1 -39 -3 -37 -9 2 -5 14 -9 25 -7 17 3 22 -2
22 -19 0 -16 5 -20 19 -16 14 3 18 1 14 -10 -5 -12 1 -13 33 -7 22 4 43 13 47
20 4 8 19 26 33 41 24 26 28 36 25 61 -2 14 25 16 34 2 10 -16 28 -12 21 5 -7
20 1 19 26 -5 l22 -20 -28 0 c-24 0 -27 -2 -16 -15 7 -8 18 -15 25 -15 7 0 15
-7 19 -15 3 -9 19 -15 41 -15 31 0 35 3 35 25 0 23 1 23 43 -15 23 -22 45 -40
50 -40 4 0 7 -7 7 -15 0 -8 -5 -15 -11 -15 -6 0 -4 -7 5 -15 8 -8 19 -15 25
-15 6 0 11 -4 11 -10 0 -5 7 -10 15 -10 24 0 17 -20 -7 -21 -15 -1 -17 -3 -7
-6 9 -2 21 -14 27 -26 10 -20 11 -19 5 7 l-6 28 44 -7 c54 -9 59 -12 59 -33 0
-13 -2 -14 -9 -4 -6 11 -10 10 -16 -5 -7 -16 -9 -15 -15 7 -6 23 -8 20 -20
-23 -9 -36 -18 -49 -36 -53 -22 -6 -28 -17 -27 -51 0 -6 -6 -9 -13 -6 -9 3
-14 -2 -15 -13 0 -11 -3 -14 -6 -6 -4 11 -43 18 -43 7 0 -3 7 -16 15 -29 20
-30 16 -86 -6 -108 -9 -9 -19 -23 -21 -30 -4 -10 -11 -9 -31 5 -31 20 -35 21
-34 5 2 -51 -4 -58 -63 -85 -33 -14 -60 -30 -60 -35 0 -12 -83 -10 -135 3 -38
9 -53 8 -110 -11 -73 -24 -122 -23 -176 4 -18 9 -34 14 -36 12 -2 -2 40 -26
93 -52 l98 -49 3 -200 c16 -972 22 -1803 17 -2022 l-7 -263 -24 35 c-13 19
-29 35 -35 35 -16 0 -68 51 -68 67 0 7 -6 13 -14 13 -7 0 -19 15 -26 33 -7 17
-16 41 -21 52 -11 27 -27 183 -34 345 -3 74 -10 205 -15 290 -18 294 -60 1406
-60 1590 0 84 -4 121 -12 127 -7 4 -63 7 -125 7 l-111 -1 19 20 c11 12 17 28
14 36 -7 17 109 136 123 127 6 -3 9 2 7 11 -2 10 -4 28 -4 41 -1 12 -6 22 -12
22 -5 0 -7 -5 -3 -12 4 -7 3 -8 -4 -4 -7 4 -12 14 -12 22 0 18 -11 18 -55 -3
-19 -9 -34 -22 -32 -27 7 -18 -51 -116 -68 -116 -5 0 -29 -21 -52 -47 l-43
-48 -19 23 c-11 12 -22 22 -25 22 -15 0 -60 -85 -57 -108 1 -14 -3 -29 -11
-33 -9 -6 -9 -9 -1 -9 8 0 10 -7 6 -17 -5 -14 0 -13 33 7 21 13 53 31 70 41
17 11 50 25 73 34 l41 14 0 -27 c0 -15 7 -128 15 -252 8 -124 21 -351 30 -505
8 -154 20 -363 25 -465 13 -219 58 -971 63 -1050 3 -30 1 -64 -4 -75 -6 -17
-8 -16 -9 10 -1 18 -4 24 -8 15 -3 -9 -10 2 -19 30 l-12 45 4 -45 c4 -38 3
-40 -5 -17 -11 35 -37 56 -67 57 -13 0 -23 6 -23 13 0 8 -4 7 -10 -3 -8 -12
-10 -12 -11 5 0 16 -3 15 -13 -8 -11 -25 -14 -18 -30 90 -9 65 -24 185 -32
268 -8 82 -16 164 -19 180 -5 28 -33 360 -55 655 -5 74 -24 312 -42 529 -23
286 -28 398 -21 411 9 13 8 17 -3 17 -7 0 -11 -4 -9 -8 3 -4 -2 -9 -10 -13
-20 -7 -28 9 -10 24 8 7 15 17 15 22 0 5 9 21 20 35 11 14 20 29 20 33 0 4
-21 7 -47 7 -80 -1 -215 14 -271 30 -58 16 -72 35 -72 100 0 32 -2 35 -22 28
-13 -4 -33 -8 -45 -9 -13 0 -23 -4 -23 -8 0 -4 -7 -5 -14 -2 -21 8 -44 -17
-38 -40 4 -16 1 -18 -19 -13 -13 4 -30 7 -36 7 -23 0 -14 36 17 65 l29 28 -38
44 c-22 24 -47 59 -56 79 -16 35 -16 37 10 89 14 30 41 67 60 83 25 23 34 40
37 68 l3 38 57 -3 c44 -2 57 1 55 11 -2 7 -2 10 1 5 2 -4 13 -12 23 -18 20
-10 20 -9 4 21 -13 26 -21 31 -41 27 -13 -2 -24 0 -24 5 0 5 -5 6 -11 3 -6 -4
-8 -13 -5 -21 4 -10 -3 -14 -27 -14 -40 0 -57 -15 -57 -49 0 -20 -2 -23 -10
-11 -5 8 -12 11 -16 7 -4 -3 -1 -15 7 -24 13 -17 13 -17 -6 -1 -11 9 -31 15
-45 14 -14 -2 -17 -1 -7 1 9 2 15 9 12 14 -8 12 -47 11 -65 -2 -12 -9 -11 -10
5 -4 15 4 17 3 9 -5 -6 -6 -21 -12 -33 -13 -11 -1 -21 -5 -21 -10 0 -5 -9 -7
-20 -4 -14 3 -30 -3 -47 -19 -23 -22 -25 -28 -15 -45 7 -10 8 -19 3 -19 -13 0
-8 -49 6 -54 7 -3 21 -25 33 -50 21 -47 26 -71 12 -62 -14 8 -26 -7 -49 -61
l-21 -53 28 0 c16 0 31 -4 35 -9 3 -6 14 -8 25 -6 11 2 19 -1 17 -7 -1 -6 29
-21 67 -34 37 -13 74 -28 81 -34 7 -6 20 -8 29 -4 9 3 16 1 16 -6 0 -6 -4 -8
-10 -5 -5 3 -10 1 -10 -4 0 -6 9 -11 21 -11 11 0 18 4 15 9 -13 21 70 -10 137
-52 86 -54 102 -72 105 -112 1 -16 9 -100 17 -185 9 -85 31 -317 50 -515 60
-612 85 -853 130 -1235 23 -192 24 -200 14 -200 -5 0 -9 -7 -9 -15 0 -8 -5
-15 -11 -15 -6 0 -8 7 -5 16 4 11 1 14 -13 9 -11 -3 -33 3 -53 15 -40 24 -68
26 -68 4 0 -11 -6 -15 -20 -11 -13 3 -20 0 -20 -9 0 -9 12 -14 35 -14 19 0 35
-4 35 -9 0 -5 17 -11 39 -15 32 -5 41 -12 51 -38 7 -18 20 -38 27 -45 8 -6 17
-29 20 -51 4 -33 2 -40 -16 -45 -12 -3 -25 1 -33 10 -17 21 -100 11 -134 -16
-36 -28 -70 -73 -50 -65 11 4 16 0 17 -12 2 -34 -3 -49 -22 -67 -11 -10 -19
-31 -19 -50 1 -27 2 -29 11 -14 10 18 12 18 30 1 19 -17 20 -17 13 2 -4 14 -4
16 4 5 6 -8 8 -20 5 -28 -3 -7 1 -13 8 -14 8 0 4 -4 -8 -9 -13 -5 -23 -15 -23
-22 -1 -7 -11 -21 -23 -31 -18 -15 -21 -26 -18 -63 2 -31 -1 -44 -9 -42 -6 2
-17 -4 -23 -13 -14 -22 8 -75 39 -96 45 -29 137 26 97 59 -15 11 -16 11 -10
-4 3 -10 2 -18 -4 -18 -5 0 -12 6 -15 14 -3 8 -19 18 -35 21 -44 10 -35 26 10
19 24 -4 41 -2 45 5 11 17 24 13 22 -6 0 -10 5 -17 12 -15 8 1 11 -2 6 -9 -8
-14 14 -29 44 -29 15 0 26 7 29 19 3 11 13 21 24 24 12 3 22 17 25 36 4 21 12
31 24 31 28 0 72 58 64 84 -4 11 -11 24 -17 27 -5 4 -7 14 -4 23 5 12 0 16
-23 16 -28 0 -29 2 -28 44 1 54 26 98 67 119 27 14 31 13 46 -3 8 -9 13 -24 9
-34 -3 -9 -1 -16 5 -16 6 0 11 -7 11 -15 0 -12 5 -13 27 -4 14 5 38 7 53 4 28
-6 97 -72 92 -88 -2 -6 2 -14 9 -18 7 -4 14 -16 15 -26 20 -138 21 -148 6
-171 -19 -29 -26 -29 -11 1 11 21 10 21 -6 5 -19 -18 -11 -43 11 -34 8 3 11 0
8 -9 -6 -14 -37 -15 -50 -2 -4 4 -17 7 -29 7 -13 0 -28 7 -35 15 -7 8 -18 15
-26 15 -19 0 -43 38 -37 61 8 31 -11 22 -31 -15 -10 -19 -26 -38 -36 -42 -30
-15 -100 -83 -100 -98 0 -7 6 -19 14 -25 11 -9 15 -7 18 7 3 12 18 22 39 26
18 3 41 14 51 23 17 15 21 13 63 -26 48 -44 70 -49 115 -26 38 20 109 110 117
147 3 15 8 28 12 28 3 0 49 -7 101 -14 108 -17 226 -32 350 -47 47 -5 129 -19
182 -30 l97 -20 168 41 c92 22 204 50 248 61 44 12 116 29 160 39 44 10 136
33 205 50 69 18 163 41 210 52 108 26 148 52 203 130 101 143 254 419 311 563
166 415 228 592 227 640 -1 21 2 26 8 16 6 -9 12 2 21 38 7 29 21 71 33 94 11
23 21 56 21 74 1 17 3 29 6 27 9 -9 38 95 33 118 -4 19 -3 20 7 8 9 -12 10 -9
5 16 -3 17 -1 44 5 59 9 24 13 27 21 15 8 -11 10 -8 6 12 -2 15 -1 25 4 23 10
-7 22 51 14 65 -3 5 -2 10 3 10 5 0 15 19 22 43 7 23 16 51 21 62 23 53 114
340 160 505 83 297 89 322 89 351 0 35 10 60 21 53 5 -2 18 0 31 7 18 9 24 9
34 -6 16 -21 54 -11 54 15 0 10 7 25 15 34 14 14 45 77 45 91 0 3 -11 5 -23 5
-24 0 -53 -42 -42 -60 3 -5 1 -11 -4 -14 -5 -4 -13 4 -16 15 -7 20 -8 21 -17
5 -9 -15 -14 -11 -41 30 -22 34 -42 51 -64 58 -18 5 -33 15 -33 22 0 7 14 14
33 16 26 2 31 7 29 23 -2 11 -10 24 -18 28 -8 4 -14 15 -14 24 0 13 7 10 30
-12 17 -16 30 -34 30 -41 0 -11 40 -27 48 -19 2 2 -7 14 -20 27 -14 13 -29 30
-34 39 -5 9 -30 40 -56 69 -27 28 -48 57 -48 63 0 6 -11 23 -25 37 -14 15 -27
37 -30 49 -2 13 -9 29 -16 37 -6 8 -8 25 -5 39 5 19 2 25 -9 25 -12 0 -15 6
-10 19 3 10 0 25 -8 33 -7 7 -13 23 -12 35 2 22 2 22 -42 -4 -42 -25 -49 -23
-44 15 1 7 -9 12 -25 12 -18 0 -25 -4 -21 -14 3 -8 -1 -20 -10 -28 -9 -7 -17
-12 -17 -10 -1 2 -14 -1 -29 -7 -36 -14 -50 -14 -42 0 9 13 -14 70 -35 87 -12
11 -12 12 0 6 13 -7 13 -6 1 9 -22 28 -48 -2 -45 -53 1 -27 -2 -40 -10 -37 -6
3 -10 9 -9 14 1 6 -9 15 -22 21 -18 8 -25 9 -25 1 0 -8 -5 -7 -15 1 -13 11
-12 16 7 44 12 17 25 33 28 36 9 9 30 44 36 62 3 9 19 22 34 28 23 9 34 9 59
-4 17 -9 31 -23 31 -31 0 -10 8 -6 26 10 15 14 33 25 40 25 17 0 18 27 2 33
-10 4 -10 6 0 6 6 1 12 8 12 16 0 8 -6 24 -12 36 -11 17 -10 22 6 35 11 8 25
14 30 14 6 0 3 -5 -6 -11 -19 -11 -25 -39 -8 -39 6 0 23 -11 38 -25 36 -33 42
-32 42 12 0 36 0 36 20 18 19 -17 22 -17 36 -3 20 20 11 38 -16 31 -14 -4 -30
3 -45 17 -34 32 -32 44 8 35 17 -4 50 -8 72 -8 34 -2 40 1 43 20 4 30 -42 61
-68 45 -14 -9 -21 -7 -34 7 -9 10 -16 23 -16 30 0 14 -40 30 -57 24 -20 -8
-15 -41 7 -55 27 -17 25 -24 -7 -36 -16 -5 -36 -13 -47 -18 -17 -7 -18 -3 -14
50 3 31 1 59 -4 62 -4 3 -8 -7 -8 -21z m-1705 -163 c-3 -3 -11 0 -18 7 -9 10
-8 11 6 5 10 -3 15 -9 12 -12z m325 -71 c0 -29 -14 -41 -50 -41 -28 0 -24 58
4 63 43 9 46 7 46 -22z m-77 -8 c-7 -2 -13 -12 -13 -20 0 -9 -3 -14 -6 -10
-10 10 4 37 18 36 10 0 10 -2 1 -6z m-479 -168 c-4 -8 -8 -15 -10 -15 -2 0 -4
7 -4 15 0 8 4 15 10 15 5 0 7 -7 4 -15z m1951 -155 c37 -14 48 -38 46 -95 -2
-72 22 -71 38 3 1 4 8 -8 16 -27 20 -45 20 -111 0 -111 -12 0 -11 -8 5 -46 24
-55 24 -54 4 -54 -9 0 -18 -8 -21 -18 -4 -16 -16 -17 -136 -14 -73 2 -129 1
-126 -2 5 -6 24 -10 147 -36 26 -6 71 -17 100 -26 49 -16 52 -18 36 -35 -10
-11 -15 -33 -14 -61 1 -24 1 -48 1 -54 -2 -22 -39 -21 -87 2 -27 12 -56 23
-64 24 -8 0 -30 16 -49 35 -19 19 -38 35 -43 35 -4 0 -32 16 -61 35 -64 42
-100 43 -105 2 -4 -33 -9 -33 -46 -4 -29 24 -29 47 0 47 8 0 14 5 14 10 0 14
-13 13 -28 -2 -9 -9 -15 -9 -24 0 -15 15 -11 18 35 26 36 7 38 6 32 -14 -7
-21 -7 -22 12 -3 15 13 18 25 12 45 -6 21 0 42 22 85 16 32 29 60 29 63 0 12
-62 41 -75 36 -8 -3 -17 3 -20 14 -4 11 -12 17 -21 13 -8 -3 -14 1 -14 11 0 9
6 16 14 16 8 0 16 7 20 15 3 8 12 12 21 9 9 -4 15 0 15 9 0 13 5 14 31 5 16
-6 32 -8 35 -5 3 3 -4 8 -15 12 -12 3 -21 10 -21 15 0 15 28 19 64 8 26 -8 36
-17 37 -32 0 -12 3 -15 6 -8 2 6 9 12 14 12 6 0 7 -6 3 -12 -11 -20 8 1 45 50
35 45 48 48 116 22z m-1740 -1 c6 -4 26 -11 45 -14 19 -3 39 -13 43 -21 4 -8
17 -23 29 -33 11 -11 21 -31 22 -44 0 -14 5 -23 10 -20 5 3 6 0 4 -8 -3 -8
-11 -13 -17 -11 -7 1 -10 -2 -6 -7 3 -6 12 -8 20 -4 8 3 15 0 15 -6 0 -6 -4
-11 -10 -11 -5 0 -10 -5 -10 -11 0 -5 5 -7 10 -4 6 3 10 -3 10 -15 0 -12 -4
-19 -8 -16 -5 3 -9 -1 -9 -9 0 -8 6 -15 13 -15 7 0 10 -8 7 -20 -5 -20 -43
-29 -43 -10 0 6 -19 11 -42 11 l-43 2 40 7 40 7 -37 2 c-31 1 -38 5 -38 21 0
11 -6 20 -14 20 -19 0 -27 25 -13 39 8 8 8 11 0 11 -6 0 -13 -4 -15 -10 -5
-14 -48 0 -48 16 0 8 -7 17 -15 21 -24 8 -48 60 -33 69 6 4 14 2 16 -4 7 -22
34 -13 30 11 -2 18 -9 22 -39 22 -26 -1 -35 3 -32 12 3 8 -3 13 -13 14 -11 1
-6 5 11 9 38 10 107 9 120 -1z m-215 -49 c0 -5 -5 -10 -11 -10 -5 0 -7 5 -4
10 3 6 8 10 11 10 2 0 4 -4 4 -10z m1528 -187 c-2 -5 1 -9 6 -10 5 0 20 -18
32 -39 l23 -38 -20 -22 c-18 -19 -25 -21 -49 -12 -40 14 -66 54 -48 76 32 43
63 67 56 45z m-1174 -149 c3 -8 2 -12 -4 -9 -6 3 -10 10 -10 16 0 14 7 11 14
-7z m1726 -99 c0 -8 -2 -15 -4 -15 -2 0 -6 7 -10 15 -3 8 -1 15 4 15 6 0 10
-7 10 -15z m-180 -186 c0 -26 -9 -88 -21 -136 -11 -48 -52 -230 -90 -403 -158
-710 -329 -1334 -435 -1588 -13 -32 -23 -48 -24 -37 -1 25 -39 77 -40 55 -1
-13 -2 -13 -10 1 -6 10 1 49 21 119 85 292 192 752 329 1413 87 420 111 548
104 558 -10 17 88 63 140 65 25 2 26 -1 26 -47z m213 -5 c26 -19 50 -41 53
-49 3 -7 -9 -64 -26 -127 -45 -164 -75 -273 -121 -448 -38 -148 -72 -263 -124
-430 -13 -41 -38 -122 -55 -180 -98 -322 -232 -702 -309 -878 -79 -178 -146
-294 -127 -218 4 16 3 25 -2 22 -12 -7 -7 36 6 61 43 79 220 642 328 1038 29
110 63 232 74 270 27 96 124 488 166 670 46 198 75 305 83 305 3 0 28 -16 54
-36z m-1997 -16 c4 -7 3 -8 -4 -4 -7 4 -12 2 -12 -5 0 -7 -3 -10 -6 -6 -6 5 3
27 11 27 2 0 7 -5 11 -12z m1386 -70 c55 -35 57 -43 34 -173 -73 -405 -134
-723 -180 -945 -89 -424 -217 -920 -239 -920 -5 0 -7 11 -5 25 3 14 1 25 -3
25 -13 0 -11 -44 3 -58 8 -8 9 -15 2 -22 -7 -7 -14 7 -23 41 l-13 51 -21 -42
c-18 -34 -23 -38 -28 -23 -7 16 -8 16 -8 -3 -1 -11 -8 -29 -17 -40 -15 -19
-15 -19 -10 1 80 302 204 921 261 1305 10 63 32 207 50 320 19 113 36 234 40
270 8 90 26 222 31 238 5 16 56 -4 126 -50z m-341 -125 c-7 -87 -21 -223 -32
-303 -11 -80 -31 -230 -44 -335 -30 -224 -101 -649 -151 -895 -57 -283 -178
-747 -156 -601 2 19 -2 36 -11 45 -13 14 -15 11 -11 -27 l3 -42 -8 38 c-8 39
-28 70 -28 44 0 -16 -43 -77 -55 -77 -5 0 -6 -4 -3 -10 3 -5 2 -10 -3 -10 -5
0 -14 -10 -21 -22 -11 -22 -11 -21 -7 7 3 17 37 179 75 360 132 628 147 706
176 940 8 66 19 156 25 200 5 44 19 168 30 275 20 188 60 433 84 515 11 36 16
39 52 43 21 2 48 9 59 17 11 7 24 9 29 5 5 -5 4 -75 -3 -167z m-925 60 c-3
-49 -8 -178 -11 -288 -14 -524 -59 -1155 -121 -1720 -27 -250 -82 -643 -91
-658 -3 -5 -10 -4 -16 2 -15 15 -27 14 -27 -4 0 -8 5 -15 11 -15 5 0 7 -4 4
-10 -4 -6 -17 -4 -35 5 -20 10 -30 11 -32 3 -3 -7 -11 -7 -27 3 -23 14 -23 17
-17 129 3 63 10 170 16 238 5 68 14 182 20 254 20 248 30 586 36 1312 5 551 4
727 -4 722 -7 -4 -12 -5 -12 -2 0 3 10 10 21 17 15 8 19 8 15 0 -4 -6 -5 -11
-3 -11 10 0 121 60 112 60 -13 0 17 20 30 20 6 0 3 -5 -5 -10 -17 -11 -10 -13
14 -4 9 3 13 11 9 17 -4 6 2 8 15 5 12 -4 20 -2 17 2 -5 9 21 16 64 19 23 1
23 1 17 -86z m354 59 c90 -34 170 -83 170 -106 0 -20 -8 -101 -50 -501 -12
-104 -25 -235 -31 -290 -24 -241 -63 -529 -100 -750 -51 -304 -198 -990 -174
-815 4 28 2 31 -6 17 -6 -9 -15 -15 -21 -11 -5 3 -23 -3 -39 -15 -15 -11 -32
-21 -36 -21 -4 0 -22 -14 -40 -32 -18 -18 -33 -28 -33 -22 1 12 49 334 95 634
52 337 74 522 100 845 8 105 19 233 25 285 17 171 29 311 47 558 19 270 12
254 93 224z m-670 -97 c0 -8 -93 -75 -104 -75 -6 0 -2 6 9 12 11 6 36 24 55
40 35 29 40 31 40 23z m955 -25 c-10 -11 -23 -20 -29 -20 -6 0 0 9 14 20 32
25 38 25 15 0z m-1998 -54 c-9 -7 -17 -17 -17 -22 -1 -13 -50 -47 -50 -35 0
13 73 81 80 74 3 -2 -3 -10 -13 -17z m3090 -698 c-3 -8 -6 -5 -6 6 -1 11 2 17
5 13 3 -3 4 -12 1 -19z m-3142 -2068 c3 -5 1 -10 -4 -10 -6 0 -11 5 -11 10 0
6 2 10 4 10 3 0 8 -4 11 -10z"/>
<path d="M5975 4470 c-6 -9 1 -14 16 -12 4 1 5 -8 2 -18 -7 -25 3 -26 16 -2 7
14 5 21 -9 30 -12 7 -21 8 -25 2z"/>
<path d="M5940 4436 c0 -2 7 -6 15 -10 8 -3 15 -1 15 4 0 6 -7 10 -15 10 -8 0
-15 -2 -15 -4z"/>
<path d="M5830 4381 c0 -6 5 -11 10 -11 6 0 10 -10 11 -22 0 -13 3 -17 6 -10
6 14 36 16 61 3 34 -19 122 -42 133 -35 15 9 -93 47 -169 59 -13 2 -29 9 -37
15 -11 9 -15 9 -15 1z"/>
<path d="M6090 4290 c0 -5 5 -10 11 -10 5 0 7 5 4 10 -3 6 -8 10 -11 10 -2 0
-4 -4 -4 -10z"/>
<path d="M5806 4229 c-9 -18 -14 -34 -12 -37 3 -2 12 10 21 28 9 18 14 34 12
37 -3 2 -12 -10 -21 -28z"/>
<path d="M4288 4443 c7 -3 16 -2 19 1 4 3 -2 6 -13 5 -11 0 -14 -3 -6 -6z"/>
<path d="M4268 4403 c7 -3 16 -2 19 1 4 3 -2 6 -13 5 -11 0 -14 -3 -6 -6z"/>
<path d="M5401 1724 c0 -11 3 -14 6 -6 3 7 2 16 -1 19 -3 4 -6 -2 -5 -13z"/>
<path d="M5371 1719 c0 -8 6 -24 14 -35 13 -17 14 -17 15 -1 0 9 -4 17 -9 17
-5 0 -12 8 -14 18 -4 13 -5 14 -6 1z"/>
<path d="M4499 4961 c-19 -15 -50 -36 -69 -46 -19 -10 -30 -20 -23 -22 16 -6
60 19 102 57 44 39 36 48 -10 11z"/>
<path d="M6341 4951 c6 -17 15 -31 19 -31 12 0 0 37 -16 51 -12 9 -12 6 -3
-20z"/>
<path d="M3911 4924 c-12 -26 -4 -31 21 -11 14 10 14 14 4 24 -11 9 -16 6 -25
-13z"/>
<path d="M1832 4920 c-23 -14 -29 -24 -25 -39 4 -16 1 -21 -15 -21 -24 0 -39
-17 -44 -49 -2 -19 5 -29 32 -45 29 -17 33 -17 21 -3 -7 9 -9 17 -3 17 5 0 8
8 5 18 -3 11 8 31 28 53 51 54 63 75 46 82 -8 3 -28 -3 -45 -13z"/>
<path d="M2507 4894 c-23 -12 -26 -18 -17 -29 9 -11 16 -12 31 -2 10 6 19 17
19 24 0 6 6 14 13 16 8 4 7 6 -3 6 -8 0 -28 -7 -43 -15z"/>
<path d="M5250 4889 c0 -5 5 -9 11 -9 6 0 24 -9 40 -21 16 -11 35 -18 42 -16
7 3 5 6 -5 6 -10 1 -17 6 -15 12 1 5 -15 16 -35 23 -21 8 -38 10 -38 5z"/>
<path d="M3816 4869 c-14 -11 -34 -35 -43 -52 -15 -30 -15 -31 1 -18 20 16 80
91 73 91 -2 0 -16 -9 -31 -21z"/>
<path d="M4030 4879 c0 -5 5 -7 10 -4 6 3 10 8 10 11 0 2 -4 4 -10 4 -5 0 -10
-5 -10 -11z"/>
<path d="M1853 4815 c-3 -9 -3 -18 -1 -21 3 -3 8 4 11 16 6 23 -1 27 -10 5z"/>
<path d="M2528 4785 c-32 -28 -34 -35 -12 -35 8 0 39 -12 69 -26 66 -33 80
-60 66 -136 0 -4 -17 -15 -38 -23 -20 -8 -33 -18 -30 -22 4 -3 12 -1 19 5 7 5
27 12 43 14 18 2 30 9 30 18 0 8 8 27 19 43 18 26 18 28 1 47 -13 14 -15 28
-10 58 l6 38 -58 18 c-32 9 -62 19 -68 21 -5 2 -22 -7 -37 -20z"/>
<path d="M3322 4798 c-16 -16 -15 -63 2 -77 14 -12 66 -5 66 8 0 4 -6 13 -12
20 -11 10 -10 11 3 6 9 -3 22 1 29 10 11 13 9 15 -9 15 -12 0 -32 7 -44 15
-18 11 -26 12 -35 3z"/>
<path d="M2240 4765 c0 -9 5 -15 11 -13 6 2 11 8 11 13 0 5 -5 11 -11 13 -6 2
-11 -4 -11 -13z"/>
<path d="M6477 4746 c-6 -16 2 -28 14 -20 12 7 11 34 0 34 -5 0 -11 -6 -14
-14z"/>
<path d="M2121 4704 c0 -11 3 -14 6 -6 3 7 2 16 -1 19 -3 4 -6 -2 -5 -13z"/>
<path d="M5528 4699 c25 -23 33 -24 26 -5 -3 8 -15 16 -26 19 l-20 6 20 -20z"/>
<path d="M3340 4680 c0 -5 9 -10 21 -10 11 0 17 5 14 10 -3 6 -13 10 -21 10
-8 0 -14 -4 -14 -10z"/>
<path d="M2582 4663 c-16 -6 -6 -23 14 -23 8 0 13 4 10 9 -4 5 0 12 6 14 9 4
8 5 -2 5 -8 0 -21 -2 -28 -5z"/>
<path d="M3388 4659 c-24 -14 -23 -52 3 -75 17 -15 23 -16 41 -5 11 7 17 8 13
2 -3 -6 -1 -11 5 -11 6 0 8 10 4 25 -5 21 -3 25 17 25 15 0 19 -3 12 -8 -17
-11 1 -35 23 -30 10 2 20 11 22 20 2 12 -13 24 -53 42 -62 29 -63 29 -87 15z"/>
<path d="M6303 4663 c-14 -5 -18 -33 -5 -33 4 0 13 9 20 20 12 20 8 23 -15 13z"/>
<path d="M6175 4620 c-3 -5 1 -10 10 -10 9 0 13 5 10 10 -3 6 -8 10 -10 10 -2
0 -7 -4 -10 -10z"/>
<path d="M2746 4613 c-11 -11 -6 -23 9 -23 8 0 15 4 15 9 0 13 -16 22 -24 14z"/>
<path d="M3548 4589 c-9 -26 4 -59 23 -59 30 0 33 21 6 47 -17 18 -26 21 -29
12z"/>
<path d="M6256 4554 c-15 -10 -17 -17 -9 -25 8 -8 14 -5 23 11 15 28 10 32
-14 14z"/>
<path d="M2420 4549 c0 -5 -4 -8 -9 -5 -5 3 -15 -2 -22 -11 -8 -9 -9 -14 -3
-10 14 8 26 -15 31 -57 2 -16 8 -35 15 -43 15 -18 23 -5 33 54 5 32 3 46 -12
62 -19 23 -33 27 -33 10z"/>
<path d="M2501 4463 c1 -34 2 -35 9 -13 11 36 11 50 0 50 -5 0 -10 -17 -9 -37z"/>
<path d="M2758 4453 c-20 -5 -40 -53 -43 -100 -2 -23 -11 -43 -29 -60 -16 -15
-25 -31 -22 -41 8 -25 -15 -48 -54 -56 -42 -8 -120 -81 -120 -112 0 -33 45
-65 108 -77 23 -5 32 -3 32 7 0 8 7 17 16 20 22 9 26 8 18 -6 -4 -7 -3 -8 4
-4 6 4 9 13 5 21 -3 11 0 14 13 12 31 -5 50 -20 65 -52 16 -34 98 -82 109 -64
4 6 7 27 6 47 -1 29 7 45 33 75 19 21 45 40 58 43 12 3 25 15 28 25 4 10 11
19 16 19 14 0 11 -28 -3 -33 -7 -3 0 -6 15 -6 33 -1 32 6 -11 99 -14 30 -25
63 -24 73 2 22 -83 154 -108 167 -19 10 -80 12 -112 3z m-25 -373 c-6 -23 -43
-22 -43 0 0 23 8 29 29 23 12 -3 17 -11 14 -23z m72 0 l20 -25 -22 19 c-13 11
-23 24 -23 29 0 6 1 8 3 6 1 -2 11 -15 22 -29z"/>
<path d="M2470 4425 c0 -9 -9 -33 -20 -55 -24 -47 -24 -50 -5 -50 23 0 65 46
65 70 0 20 -21 50 -34 50 -3 0 -6 -7 -6 -15z"/>
<path d="M6530 4437 c8 -8 153 -47 158 -43 9 10 -58 35 -109 42 -30 4 -52 4
-49 1z"/>
<path d="M5560 4370 c0 -5 5 -10 10 -10 6 0 10 5 10 10 0 6 -4 10 -10 10 -5 0
-10 -4 -10 -10z"/>
<path d="M3660 4330 c-12 -8 -10 -10 8 -10 13 0 20 4 17 10 -7 12 -6 12 -25 0z"/>
<path d="M2370 4276 c0 -9 30 -14 35 -6 4 6 -3 10 -14 10 -12 0 -21 -2 -21 -4z"/>
<path d="M5450 4240 c20 -13 40 -13 40 0 0 6 -12 10 -27 10 -22 0 -25 -2 -13
-10z"/>
<path d="M6706 4132 c-11 -19 0 -29 33 -30 36 -1 47 11 26 28 -11 10 -18 10
-29 1 -11 -9 -15 -9 -18 1 -3 9 -6 9 -12 0z"/>
<path d="M6453 4069 c-1 -10 5 -19 13 -19 17 0 18 14 1 28 -10 8 -13 6 -14 -9z"/>
<path d="M1272 3855 c0 -16 2 -22 5 -12 2 9 2 23 0 30 -3 6 -5 -1 -5 -18z"/>
<path d="M2032 3840 c-12 -12 -22 -17 -22 -12 0 10 -85 -1 -123 -16 -15 -7
-30 -18 -33 -26 -10 -27 35 -339 147 -1011 79 -474 160 -891 222 -1135 l42
-165 35 2 c19 2 52 -4 74 -13 21 -8 41 -12 44 -9 3 3 0 26 -6 53 -70 282 -147
692 -232 1227 -27 174 -64 453 -120 905 -12 96 -24 177 -26 179 -2 2 3 13 13
23 22 24 12 23 -15 -2z m-35 -26 c-3 -3 -12 -4 -19 -1 -8 3 -5 6 6 6 11 1 17
-2 13 -5z"/>
<path d="M1280 3786 c0 -8 5 -18 10 -21 6 -3 10 -15 10 -26 0 -11 5 -17 10
-14 6 3 10 -4 11 -17 0 -22 1 -22 8 -3 8 19 9 18 13 -5 5 -24 5 -24 7 4 0 16
-8 44 -20 62 -21 35 -49 46 -49 20z"/>
<path d="M2274 3714 c33 -324 119 -1038 130 -1089 3 -11 12 -76 21 -145 27
-217 75 -530 100 -660 40 -207 65 -354 65 -376 0 -12 -7 -25 -16 -28 -15 -6
-15 -4 -3 10 13 16 12 16 -7 6 -12 -6 -24 -9 -27 -5 -4 3 -13 1 -21 -6 -8 -6
-20 -10 -27 -9 -10 2 -14 -8 -12 -39 3 -75 13 -78 63 -15 36 45 54 59 86 67
23 6 47 15 55 22 8 6 31 14 52 18 33 7 38 11 33 29 -21 75 -61 300 -95 541
-45 313 -46 320 -132 1095 -55 498 -63 557 -82 577 -15 17 -23 20 -34 12 -7
-6 -13 -7 -13 -3 0 8 -49 28 -119 49 -23 7 -23 6 -17 -51z"/>
<path d="M1383 3665 c0 -22 2 -30 4 -17 2 12 2 30 0 40 -3 9 -5 -1 -4 -23z"/>
<path d="M1627 3644 c-3 -3 -3 -12 0 -20 3 -8 1 -14 -4 -14 -5 0 -8 -15 -5
-32 4 -32 3 -32 -12 -13 -14 18 -15 18 -16 3 0 -10 -5 -18 -12 -18 -6 0 -4 -7
5 -18 10 -10 17 -23 17 -28 0 -5 -5 -2 -11 6 -8 11 -9 8 -4 -13 4 -19 2 -26
-5 -22 -14 8 -12 -27 6 -100 13 -54 14 -56 9 -15 -2 25 -7 55 -11 65 -3 11 3
6 13 -10 26 -39 36 -110 23 -154 -5 -19 -8 -37 -5 -39 3 -3 8 9 11 26 12 61
20 31 10 -42 -8 -63 -6 -86 12 -158 21 -82 54 -243 92 -438 10 -52 23 -117 30
-145 7 -27 14 -63 17 -80 2 -16 11 -59 19 -95 8 -36 19 -90 24 -120 21 -119
33 -171 39 -161 4 5 7 -9 8 -32 1 -55 20 -133 23 -97 1 14 6 3 11 -27 5 -29
18 -70 29 -90 11 -21 20 -48 20 -60 0 -13 4 -23 8 -23 5 0 15 -18 22 -40 7
-21 18 -37 23 -33 6 3 7 1 3 -6 -9 -14 12 -81 26 -81 6 0 8 -7 5 -15 -4 -8 -2
-17 3 -20 6 -4 10 -16 10 -28 0 -18 2 -19 10 -7 8 12 10 12 10 -5 1 -24 24
-57 34 -48 4 4 5 -6 3 -22 -2 -17 0 -38 5 -47 6 -12 5 -18 -2 -18 -7 0 -5 -6
4 -15 29 -29 32 -14 13 65 -11 44 -23 77 -28 74 -5 -3 -6 2 -3 10 3 8 -9 63
-26 123 -41 142 -122 476 -155 633 -14 69 -35 170 -46 225 -27 131 -61 311
-109 575 -22 118 -55 298 -75 400 -19 102 -35 195 -35 206 0 22 -23 48 -33 38z
m24 -466 c-3 -21 -6 -26 -9 -15 -3 17 3 47 11 47 2 0 1 -15 -2 -32z"/>
<path d="M2960 3630 c0 -5 5 -10 10 -10 6 0 10 5 10 10 0 6 -4 10 -10 10 -5 0
-10 -4 -10 -10z"/>
<path d="M5991 2724 c0 -11 3 -14 6 -6 3 7 2 16 -1 19 -3 4 -6 -2 -5 -13z"/>
<path d="M5880 1505 c0 -3 20 -14 45 -25 43 -19 63 -36 28 -23 -12 4 -11 0 5
-11 12 -10 22 -24 22 -32 0 -8 7 -17 15 -20 16 -6 20 -29 8 -37 -5 -2 -2 -2 5
0 9 2 11 -3 7 -18 -5 -14 -3 -19 3 -15 7 4 9 -11 6 -44 -2 -27 0 -50 4 -50 18
1 44 31 44 52 0 30 -38 114 -69 156 -23 30 -83 71 -83 55 0 -4 -5 -2 -12 5
-12 12 -28 16 -28 7z"/>
<path d="M5833 1478 c-15 -20 -25 -38 -20 -38 3 0 12 11 21 25 17 26 16 35 -1
13z"/>
<path d="M5824 1355 c-17 -9 -37 -27 -44 -41 -12 -22 -32 -34 -29 -16 4 22 -5
28 -48 31 -56 3 -97 -13 -117 -44 -19 -30 -37 -105 -25 -105 5 0 9 7 9 15 0
25 40 96 50 90 6 -4 10 -1 10 4 0 6 4 11 10 11 5 0 7 -13 4 -30 -4 -19 -1 -38
10 -55 9 -13 16 -35 16 -49 0 -31 10 -56 22 -56 5 0 6 5 2 12 -4 6 -3 8 4 4 6
-3 44 11 84 33 40 21 101 45 136 51 50 10 62 16 58 29 -3 9 -10 35 -15 57 -6
23 -17 47 -25 53 -24 20 -79 23 -112 6z"/>
<path d="M6480 1321 c0 -6 4 -12 8 -15 5 -3 9 1 9 9 0 8 -4 15 -9 15 -4 0 -8
-4 -8 -9z"/>
<path d="M1182 1293 c-32 -16 -72 -57 -72 -74 0 -5 9 -4 20 3 11 7 20 18 20
25 0 12 50 43 70 43 5 0 10 -7 10 -15 0 -8 -4 -15 -10 -15 -5 0 -10 -4 -10 -9
0 -8 97 -26 117 -22 15 3 2 46 -19 64 -25 21 -82 22 -126 0z"/>
<path d="M6527 1225 c3 -28 9 -54 14 -59 15 -16 10 56 -5 84 -13 23 -14 21 -9
-25z"/>
<path d="M1510 1239 c17 -14 26 -17 28 -9 5 14 -16 30 -38 30 -10 -1 -7 -7 10
-21z"/>
<path d="M5558 1143 c5 -21 7 -23 10 -9 2 10 0 22 -6 28 -6 6 -7 0 -4 -19z"/>
<path d="M6538 1126 c-4 -17 -1 -23 9 -19 14 6 18 43 4 43 -5 0 -11 -11 -13
-24z"/>
<path d="M6265 1075 c20 -60 33 -128 28 -143 -6 -15 -4 -15 10 -4 10 9 32 12
64 8 46 -5 46 -5 13 5 -45 14 -67 34 -75 68 -3 14 -15 40 -26 56 -13 18 -18
22 -14 10z"/>
<path d="M5590 1073 c0 -5 9 -21 20 -38 15 -22 19 -25 17 -10 -1 19 -37 64
-37 48z"/>
<path d="M966 1052 c-2 -4 -1 -14 5 -22 7 -12 9 -10 9 8 0 23 -5 28 -14 14z"/>
<path d="M6504 1038 c-3 -4 5 -8 18 -8 20 -1 21 -2 6 -11 -22 -12 -24 -33 -3
-25 18 7 20 -5 3 -23 -11 -11 -9 -11 9 0 22 13 39 56 28 68 -10 9 -55 8 -61
-1z"/>
<path d="M985 967 c-8 -19 -2 -31 13 -26 5 2 6 13 2 24 -7 19 -8 19 -15 2z"/>
<path d="M6426 935 c-3 -8 -1 -15 4 -15 6 0 10 7 10 15 0 8 -2 15 -4 15 -2 0
-6 -7 -10 -15z"/>
<path d="M1629 911 c-15 -34 -25 -37 -53 -16 -11 8 -38 15 -59 15 -34 0 -38
-2 -27 -15 7 -8 20 -15 29 -16 10 0 11 -2 4 -6 -7 -2 -13 -14 -13 -24 0 -11 4
-18 9 -15 5 3 14 -1 21 -9 7 -8 18 -15 25 -15 11 0 11 -7 2 -32 -15 -40 -38
-69 -49 -62 -5 3 -7 0 -6 -6 3 -13 -72 -61 -83 -54 -4 2 -14 -5 -24 -16 -10
-11 -25 -20 -34 -20 -8 0 -24 -10 -36 -23 -11 -13 -16 -17 -11 -10 5 8 6 17 2
21 -4 4 -12 -1 -17 -11 -7 -12 -18 -16 -38 -12 -42 7 -105 35 -114 51 -4 8
-15 14 -24 14 -12 0 -13 -3 -3 -15 15 -18 152 -85 173 -85 9 0 27 15 41 33 23
29 33 27 27 -6 -1 -5 9 -5 21 -1 20 6 21 5 9 -10 -13 -15 -9 -16 45 -10 32 3
77 15 100 25 22 10 48 19 57 19 10 0 22 11 27 25 10 27 10 27 92 -14 43 -22
50 -23 92 -11 54 15 66 28 43 45 -10 7 -17 21 -18 31 0 14 -2 15 -6 4 -13 -40
-28 -60 -47 -61 -21 0 -21 -1 -1 -9 11 -5 14 -9 7 -9 -8 -1 -25 8 -39 19 -14
11 -31 20 -37 20 -15 0 -75 57 -98 92 -25 38 -22 66 10 131 16 31 25 61 22 68
-5 7 -13 -1 -21 -20z"/>
<path d="M6450 929 c0 -5 5 -7 10 -4 6 3 10 8 10 11 0 2 -4 4 -10 4 -5 0 -10
-5 -10 -11z"/>
<path d="M5783 840 c-34 -27 -65 -60 -69 -72 -10 -34 27 -58 90 -58 43 0 57
-5 84 -30 18 -16 39 -30 45 -30 7 0 13 -19 15 -45 4 -57 3 -57 -173 -5 l-30 9
23 -19 c31 -26 93 -42 145 -38 42 3 42 3 49 51 3 27 20 69 37 96 17 26 31 56
31 65 0 34 -39 75 -78 82 -20 3 -49 14 -64 25 -15 10 -31 19 -35 19 -5 0 -36
-22 -70 -50z"/>
<path d="M6282 832 c-13 -65 -34 -113 -48 -113 -5 0 -8 -10 -6 -22 2 -15 0
-18 -6 -9 -6 9 -12 5 -21 -15 -7 -15 -12 -30 -11 -32 1 -2 -6 -9 -16 -14 -14
-8 -22 -4 -41 19 -12 16 -23 23 -23 16 0 -7 12 -24 27 -36 l28 -24 25 20 c49
39 123 214 108 258 -2 6 -9 -15 -16 -48z"/>
<path d="M2760 670 c-21 -11 -28 -19 -18 -20 25 0 68 18 68 30 0 14 -10 12
-50 -10z"/>
<path d="M1635 560 c3 -5 10 -10 16 -10 5 0 9 5 9 10 0 6 -7 10 -16 10 -8 0
-12 -4 -9 -10z"/>
<path d="M2868 513 c-16 -2 -28 -8 -28 -13 0 -7 65 3 95 15 13 4 -31 3 -67 -2z"/>
</g>
</svg>
